# xmcd CD database file
#
# Track frame offsets:
#	150
#	14577
#	29730
#	43850
#	58497
#	73102
#	88572
#	102620
#	118957
#	133965
#	145695
#	159110
#	171495
#	194847
#	207895
#	223202
#	245710
#	258867
#	276295
#
# Disc length: 3822 seconds
#
# Revision: 0
# Processed by: cddbd v1.5.1PL0 Copyright (c) Steve Scherf et al.
# Submitted via: CDex 1.50
#
DISCID=400eec13
DTITLE=Louis Armstrong - Essential Louis Armstrong 2
DYEAR=2004
DGENRE=Jazz
TTITLE0=Memories of You
TTITLE1=Shine
TTITLE2=Walkin' My Baby Back Home
TTITLE3=Blue Again
TTITLE4=You Rascal You
TTITLE5=When It's Sleepytime Down South
TTITLE6=Lazy River
TTITLE7=Star Dust
TTITLE8=Georgia on My Mind
TTITLE9=Shadrack
TTITLE10=On the Sunny Side of the Street
TTITLE11=When the Saints Go Marching In
TTITLE12=Rockin' Chair
TTITLE13=Blueberry Hill
TTITLE14=Mack the Knife
TTITLE15=Aunt Hagar's Blues
TTITLE16=Honeysuckle Rose
TTITLE17=A Fine Romance
TTITLE18=What a Wonderful World
EXTD=YEAR: 2004
EXTT0=
EXTT1=
EXTT2=
EXTT3=
EXTT4=
EXTT5=
EXTT6=
EXTT7=
EXTT8=
EXTT9=
EXTT10=
EXTT11=
EXTT12=
EXTT13=
EXTT14=
EXTT15=
EXTT16=
EXTT17=
EXTT18=
PLAYORDER=
